<svg xmlns="http://www.w3.org/2000/svg" viewBox="0 0 32 32" width="32" height="32">
  <!-- 배경 원 (지구) -->
  <circle cx="16" cy="16" r="15" fill="#1e40af" stroke="#1e3a8a" stroke-width="1"/>
  
  <!-- 대륙 모양 (간단한 형태) -->
  <path d="M8 12 Q12 8 16 12 Q20 8 24 12 Q20 16 16 20 Q12 16 8 12" fill="#22c55e" opacity="0.8"/>
  <path d="M6 18 Q10 16 14 18 Q18 16 22 18 Q20 22 16 24 Q12 22 8 20 Q6 19 6 18" fill="#16a34a" opacity="0.7"/>
  
  <!-- 전략적 요소 - 십자선/조준선 -->
  <g stroke="#ef4444" stroke-width="1.5" opacity="0.9">
    <line x1="16" y1="4" x2="16" y2="8"/>
    <line x1="16" y1="24" x2="16" y2="28"/>
    <line x1="4" y1="16" x2="8" y2="16"/>
    <line x1="24" y1="16" x2="28" y2="16"/>
  </g>
  
  <!-- 중앙 십자선 -->
  <g stroke="#fbbf24" stroke-width="1" opacity="0.8">
    <line x1="14" y1="16" x2="18" y2="16"/>
    <line x1="16" y1="14" x2="16" y2="18"/>
  </g>
  
  <!-- 전략 포인트들 -->
  <circle cx="12" cy="10" r="1" fill="#ef4444"/>
  <circle cx="20" cy="10" r="1" fill="#ef4444"/>
  <circle cx="12" cy="22" r="1" fill="#ef4444"/>
  <circle cx="20" cy="22" r="1" fill="#ef4444"/>
  
  <!-- 중앙 핵심 포인트 -->
  <circle cx="16" cy="16" r="2" fill="#fbbf24" opacity="0.9"/>
  <circle cx="16" cy="16" r="1" fill="#f59e0b"/>
</svg> 